<mxfile host="app.diagrams.net" modified="2023-07-26T19:36:08.405Z" agent="Mozilla/5.0 (Windows NT 10.0; Win64; x64) AppleWebKit/537.36 (KHTML, like Gecko) Chrome/114.0.0.0 Safari/537.36 OPR/100.0.0.0" etag="midRTLQ77vmyJLmwrXvM" version="21.6.5" type="github">
  <diagram name="Página-1" id="5er_rqaMpt1MVVN45COl">
    <mxGraphModel dx="1009" dy="581" grid="1" gridSize="10" guides="1" tooltips="1" connect="1" arrows="1" fold="1" page="1" pageScale="1" pageWidth="827" pageHeight="1169" math="0" shadow="0">
      <root>
        <mxCell id="0" />
        <mxCell id="1" parent="0" />
        <mxCell id="TA5Ejy33XSyFlR8eNVH8-2" value="Você deverá criar a modelagem para o catálogo de filmes, observando a seguinte situação:&#xa;&#xa;&#xa;- um filme possui apenas um único gênero.&#xa;- um gênero pode definir mais de um filme." style="text;whiteSpace=wrap;fontSize=16;" vertex="1" parent="1">
          <mxGeometry width="570" height="130" as="geometry" />
        </mxCell>
        <mxCell id="TA5Ejy33XSyFlR8eNVH8-8" style="edgeStyle=orthogonalEdgeStyle;rounded=0;orthogonalLoop=1;jettySize=auto;html=1;entryX=0.5;entryY=0;entryDx=0;entryDy=0;endArrow=none;endFill=0;" edge="1" parent="1" source="TA5Ejy33XSyFlR8eNVH8-4" target="TA5Ejy33XSyFlR8eNVH8-6">
          <mxGeometry relative="1" as="geometry" />
        </mxCell>
        <mxCell id="TA5Ejy33XSyFlR8eNVH8-4" value="Filme" style="rounded=0;whiteSpace=wrap;html=1;" vertex="1" parent="1">
          <mxGeometry x="100" y="300" width="120" height="60" as="geometry" />
        </mxCell>
        <mxCell id="TA5Ejy33XSyFlR8eNVH8-5" value="Gênero" style="rounded=0;whiteSpace=wrap;html=1;" vertex="1" parent="1">
          <mxGeometry x="100" y="624.5" width="120" height="60" as="geometry" />
        </mxCell>
        <mxCell id="TA5Ejy33XSyFlR8eNVH8-9" style="edgeStyle=orthogonalEdgeStyle;rounded=0;orthogonalLoop=1;jettySize=auto;html=1;entryX=0.5;entryY=0;entryDx=0;entryDy=0;endArrow=none;endFill=0;" edge="1" parent="1" source="TA5Ejy33XSyFlR8eNVH8-6" target="TA5Ejy33XSyFlR8eNVH8-5">
          <mxGeometry relative="1" as="geometry" />
        </mxCell>
        <mxCell id="TA5Ejy33XSyFlR8eNVH8-6" value="Possui" style="rhombus;whiteSpace=wrap;html=1;" vertex="1" parent="1">
          <mxGeometry x="120" y="450" width="80" height="80" as="geometry" />
        </mxCell>
        <mxCell id="TA5Ejy33XSyFlR8eNVH8-7" value="Conceitual" style="rounded=1;whiteSpace=wrap;html=1;fillColor=#f8cecc;strokeColor=#b85450;" vertex="1" parent="1">
          <mxGeometry x="100" y="160" width="120" height="60" as="geometry" />
        </mxCell>
        <mxCell id="TA5Ejy33XSyFlR8eNVH8-10" value="N" style="text;html=1;align=center;verticalAlign=middle;resizable=0;points=[];autosize=1;strokeColor=none;fillColor=none;" vertex="1" parent="1">
          <mxGeometry x="160" y="360" width="30" height="30" as="geometry" />
        </mxCell>
        <mxCell id="TA5Ejy33XSyFlR8eNVH8-11" value="1" style="text;html=1;align=center;verticalAlign=middle;resizable=0;points=[];autosize=1;strokeColor=none;fillColor=none;" vertex="1" parent="1">
          <mxGeometry x="160" y="594.5" width="30" height="30" as="geometry" />
        </mxCell>
        <mxCell id="TA5Ejy33XSyFlR8eNVH8-12" value="Físico" style="rounded=1;whiteSpace=wrap;html=1;fillColor=#f8cecc;strokeColor=#b85450;" vertex="1" parent="1">
          <mxGeometry x="1130" y="160" width="120" height="60" as="geometry" />
        </mxCell>
        <mxCell id="TA5Ejy33XSyFlR8eNVH8-13" value="Conceitual" style="rounded=1;whiteSpace=wrap;html=1;fillColor=#f8cecc;strokeColor=#b85450;" vertex="1" parent="1">
          <mxGeometry x="590" y="160" width="120" height="60" as="geometry" />
        </mxCell>
        <mxCell id="TA5Ejy33XSyFlR8eNVH8-14" value="Gênero" style="shape=table;startSize=30;container=1;collapsible=1;childLayout=tableLayout;fixedRows=1;rowLines=0;fontStyle=1;align=center;resizeLast=1;html=1;" vertex="1" parent="1">
          <mxGeometry x="410" y="285" width="180" height="90" as="geometry" />
        </mxCell>
        <mxCell id="TA5Ejy33XSyFlR8eNVH8-15" value="" style="shape=tableRow;horizontal=0;startSize=0;swimlaneHead=0;swimlaneBody=0;fillColor=none;collapsible=0;dropTarget=0;points=[[0,0.5],[1,0.5]];portConstraint=eastwest;top=0;left=0;right=0;bottom=1;" vertex="1" parent="TA5Ejy33XSyFlR8eNVH8-14">
          <mxGeometry y="30" width="180" height="30" as="geometry" />
        </mxCell>
        <mxCell id="TA5Ejy33XSyFlR8eNVH8-16" value="PK" style="shape=partialRectangle;connectable=0;fillColor=none;top=0;left=0;bottom=0;right=0;fontStyle=1;overflow=hidden;whiteSpace=wrap;html=1;" vertex="1" parent="TA5Ejy33XSyFlR8eNVH8-15">
          <mxGeometry width="30" height="30" as="geometry">
            <mxRectangle width="30" height="30" as="alternateBounds" />
          </mxGeometry>
        </mxCell>
        <mxCell id="TA5Ejy33XSyFlR8eNVH8-17" value="IdGênero" style="shape=partialRectangle;connectable=0;fillColor=none;top=0;left=0;bottom=0;right=0;align=left;spacingLeft=6;fontStyle=5;overflow=hidden;whiteSpace=wrap;html=1;" vertex="1" parent="TA5Ejy33XSyFlR8eNVH8-15">
          <mxGeometry x="30" width="150" height="30" as="geometry">
            <mxRectangle width="150" height="30" as="alternateBounds" />
          </mxGeometry>
        </mxCell>
        <mxCell id="TA5Ejy33XSyFlR8eNVH8-18" value="" style="shape=tableRow;horizontal=0;startSize=0;swimlaneHead=0;swimlaneBody=0;fillColor=none;collapsible=0;dropTarget=0;points=[[0,0.5],[1,0.5]];portConstraint=eastwest;top=0;left=0;right=0;bottom=0;" vertex="1" parent="TA5Ejy33XSyFlR8eNVH8-14">
          <mxGeometry y="60" width="180" height="30" as="geometry" />
        </mxCell>
        <mxCell id="TA5Ejy33XSyFlR8eNVH8-19" value="" style="shape=partialRectangle;connectable=0;fillColor=none;top=0;left=0;bottom=0;right=0;editable=1;overflow=hidden;whiteSpace=wrap;html=1;" vertex="1" parent="TA5Ejy33XSyFlR8eNVH8-18">
          <mxGeometry width="30" height="30" as="geometry">
            <mxRectangle width="30" height="30" as="alternateBounds" />
          </mxGeometry>
        </mxCell>
        <mxCell id="TA5Ejy33XSyFlR8eNVH8-20" value="NomeGênero" style="shape=partialRectangle;connectable=0;fillColor=none;top=0;left=0;bottom=0;right=0;align=left;spacingLeft=6;overflow=hidden;whiteSpace=wrap;html=1;" vertex="1" parent="TA5Ejy33XSyFlR8eNVH8-18">
          <mxGeometry x="30" width="150" height="30" as="geometry">
            <mxRectangle width="150" height="30" as="alternateBounds" />
          </mxGeometry>
        </mxCell>
        <mxCell id="TA5Ejy33XSyFlR8eNVH8-27" value="Filme" style="shape=table;startSize=30;container=1;collapsible=1;childLayout=tableLayout;fixedRows=1;rowLines=0;fontStyle=1;align=center;resizeLast=1;html=1;whiteSpace=wrap;" vertex="1" parent="1">
          <mxGeometry x="700" y="285" width="180" height="120" as="geometry" />
        </mxCell>
        <mxCell id="TA5Ejy33XSyFlR8eNVH8-28" value="" style="shape=tableRow;horizontal=0;startSize=0;swimlaneHead=0;swimlaneBody=0;fillColor=none;collapsible=0;dropTarget=0;points=[[0,0.5],[1,0.5]];portConstraint=eastwest;top=0;left=0;right=0;bottom=0;html=1;" vertex="1" parent="TA5Ejy33XSyFlR8eNVH8-27">
          <mxGeometry y="30" width="180" height="30" as="geometry" />
        </mxCell>
        <mxCell id="TA5Ejy33XSyFlR8eNVH8-29" value="PK" style="shape=partialRectangle;connectable=0;fillColor=none;top=0;left=0;bottom=0;right=0;fontStyle=1;overflow=hidden;html=1;whiteSpace=wrap;" vertex="1" parent="TA5Ejy33XSyFlR8eNVH8-28">
          <mxGeometry width="60" height="30" as="geometry">
            <mxRectangle width="60" height="30" as="alternateBounds" />
          </mxGeometry>
        </mxCell>
        <mxCell id="TA5Ejy33XSyFlR8eNVH8-30" value="IdFilme" style="shape=partialRectangle;connectable=0;fillColor=none;top=0;left=0;bottom=0;right=0;align=left;spacingLeft=6;fontStyle=5;overflow=hidden;html=1;whiteSpace=wrap;" vertex="1" parent="TA5Ejy33XSyFlR8eNVH8-28">
          <mxGeometry x="60" width="120" height="30" as="geometry">
            <mxRectangle width="120" height="30" as="alternateBounds" />
          </mxGeometry>
        </mxCell>
        <mxCell id="TA5Ejy33XSyFlR8eNVH8-31" value="" style="shape=tableRow;horizontal=0;startSize=0;swimlaneHead=0;swimlaneBody=0;fillColor=none;collapsible=0;dropTarget=0;points=[[0,0.5],[1,0.5]];portConstraint=eastwest;top=0;left=0;right=0;bottom=1;html=1;" vertex="1" parent="TA5Ejy33XSyFlR8eNVH8-27">
          <mxGeometry y="60" width="180" height="30" as="geometry" />
        </mxCell>
        <mxCell id="TA5Ejy33XSyFlR8eNVH8-32" value="FK" style="shape=partialRectangle;connectable=0;fillColor=none;top=0;left=0;bottom=0;right=0;fontStyle=1;overflow=hidden;html=1;whiteSpace=wrap;" vertex="1" parent="TA5Ejy33XSyFlR8eNVH8-31">
          <mxGeometry width="60" height="30" as="geometry">
            <mxRectangle width="60" height="30" as="alternateBounds" />
          </mxGeometry>
        </mxCell>
        <mxCell id="TA5Ejy33XSyFlR8eNVH8-33" value="IdGenero" style="shape=partialRectangle;connectable=0;fillColor=none;top=0;left=0;bottom=0;right=0;align=left;spacingLeft=6;fontStyle=5;overflow=hidden;html=1;whiteSpace=wrap;" vertex="1" parent="TA5Ejy33XSyFlR8eNVH8-31">
          <mxGeometry x="60" width="120" height="30" as="geometry">
            <mxRectangle width="120" height="30" as="alternateBounds" />
          </mxGeometry>
        </mxCell>
        <mxCell id="TA5Ejy33XSyFlR8eNVH8-34" value="" style="shape=tableRow;horizontal=0;startSize=0;swimlaneHead=0;swimlaneBody=0;fillColor=none;collapsible=0;dropTarget=0;points=[[0,0.5],[1,0.5]];portConstraint=eastwest;top=0;left=0;right=0;bottom=0;html=1;" vertex="1" parent="TA5Ejy33XSyFlR8eNVH8-27">
          <mxGeometry y="90" width="180" height="30" as="geometry" />
        </mxCell>
        <mxCell id="TA5Ejy33XSyFlR8eNVH8-35" value="" style="shape=partialRectangle;connectable=0;fillColor=none;top=0;left=0;bottom=0;right=0;editable=1;overflow=hidden;html=1;whiteSpace=wrap;" vertex="1" parent="TA5Ejy33XSyFlR8eNVH8-34">
          <mxGeometry width="60" height="30" as="geometry">
            <mxRectangle width="60" height="30" as="alternateBounds" />
          </mxGeometry>
        </mxCell>
        <mxCell id="TA5Ejy33XSyFlR8eNVH8-36" value="Titulo" style="shape=partialRectangle;connectable=0;fillColor=none;top=0;left=0;bottom=0;right=0;align=left;spacingLeft=6;overflow=hidden;html=1;whiteSpace=wrap;" vertex="1" parent="TA5Ejy33XSyFlR8eNVH8-34">
          <mxGeometry x="60" width="120" height="30" as="geometry">
            <mxRectangle width="120" height="30" as="alternateBounds" />
          </mxGeometry>
        </mxCell>
        <mxCell id="TA5Ejy33XSyFlR8eNVH8-40" value="" style="edgeStyle=entityRelationEdgeStyle;fontSize=12;html=1;endArrow=ERoneToMany;rounded=0;entryX=0;entryY=0.5;entryDx=0;entryDy=0;" edge="1" parent="1" target="TA5Ejy33XSyFlR8eNVH8-31">
          <mxGeometry width="100" height="100" relative="1" as="geometry">
            <mxPoint x="590" y="330" as="sourcePoint" />
            <mxPoint x="690" y="230" as="targetPoint" />
            <Array as="points">
              <mxPoint x="450" y="390" />
              <mxPoint x="670" y="310" />
            </Array>
          </mxGeometry>
        </mxCell>
        <mxCell id="TA5Ejy33XSyFlR8eNVH8-55" value="Table" style="shape=table;startSize=30;container=1;collapsible=0;childLayout=tableLayout;strokeColor=default;fontSize=16;" vertex="1" parent="1">
          <mxGeometry x="930" y="250" width="270" height="160" as="geometry" />
        </mxCell>
        <mxCell id="TA5Ejy33XSyFlR8eNVH8-56" value="" style="shape=tableRow;horizontal=0;startSize=0;swimlaneHead=0;swimlaneBody=0;strokeColor=inherit;top=0;left=0;bottom=0;right=0;collapsible=0;dropTarget=0;fillColor=none;points=[[0,0.5],[1,0.5]];portConstraint=eastwest;fontSize=16;" vertex="1" parent="TA5Ejy33XSyFlR8eNVH8-55">
          <mxGeometry y="30" width="270" height="36" as="geometry" />
        </mxCell>
        <mxCell id="TA5Ejy33XSyFlR8eNVH8-57" value="IdGênero" style="shape=partialRectangle;html=1;whiteSpace=wrap;connectable=0;strokeColor=inherit;overflow=hidden;fillColor=none;top=0;left=0;bottom=0;right=0;pointerEvents=1;fontSize=16;" vertex="1" parent="TA5Ejy33XSyFlR8eNVH8-56">
          <mxGeometry width="122" height="36" as="geometry">
            <mxRectangle width="122" height="36" as="alternateBounds" />
          </mxGeometry>
        </mxCell>
        <mxCell id="TA5Ejy33XSyFlR8eNVH8-58" value="NomeGenero" style="shape=partialRectangle;html=1;whiteSpace=wrap;connectable=0;strokeColor=inherit;overflow=hidden;fillColor=none;top=0;left=0;bottom=0;right=0;pointerEvents=1;fontSize=16;" vertex="1" parent="TA5Ejy33XSyFlR8eNVH8-56">
          <mxGeometry x="122" width="148" height="36" as="geometry">
            <mxRectangle width="148" height="36" as="alternateBounds" />
          </mxGeometry>
        </mxCell>
        <mxCell id="TA5Ejy33XSyFlR8eNVH8-60" value="" style="shape=tableRow;horizontal=0;startSize=0;swimlaneHead=0;swimlaneBody=0;strokeColor=inherit;top=0;left=0;bottom=0;right=0;collapsible=0;dropTarget=0;fillColor=none;points=[[0,0.5],[1,0.5]];portConstraint=eastwest;fontSize=16;" vertex="1" parent="TA5Ejy33XSyFlR8eNVH8-55">
          <mxGeometry y="66" width="270" height="47" as="geometry" />
        </mxCell>
        <mxCell id="TA5Ejy33XSyFlR8eNVH8-61" value="1" style="shape=partialRectangle;html=1;whiteSpace=wrap;connectable=0;strokeColor=inherit;overflow=hidden;fillColor=none;top=0;left=0;bottom=0;right=0;pointerEvents=1;fontSize=16;" vertex="1" parent="TA5Ejy33XSyFlR8eNVH8-60">
          <mxGeometry width="122" height="47" as="geometry">
            <mxRectangle width="122" height="47" as="alternateBounds" />
          </mxGeometry>
        </mxCell>
        <mxCell id="TA5Ejy33XSyFlR8eNVH8-62" value="Ação" style="shape=partialRectangle;html=1;whiteSpace=wrap;connectable=0;strokeColor=inherit;overflow=hidden;fillColor=none;top=0;left=0;bottom=0;right=0;pointerEvents=1;fontSize=16;" vertex="1" parent="TA5Ejy33XSyFlR8eNVH8-60">
          <mxGeometry x="122" width="148" height="47" as="geometry">
            <mxRectangle width="148" height="47" as="alternateBounds" />
          </mxGeometry>
        </mxCell>
        <mxCell id="TA5Ejy33XSyFlR8eNVH8-64" value="" style="shape=tableRow;horizontal=0;startSize=0;swimlaneHead=0;swimlaneBody=0;strokeColor=inherit;top=0;left=0;bottom=0;right=0;collapsible=0;dropTarget=0;fillColor=none;points=[[0,0.5],[1,0.5]];portConstraint=eastwest;fontSize=16;" vertex="1" parent="TA5Ejy33XSyFlR8eNVH8-55">
          <mxGeometry y="113" width="270" height="47" as="geometry" />
        </mxCell>
        <mxCell id="TA5Ejy33XSyFlR8eNVH8-65" value="2" style="shape=partialRectangle;html=1;whiteSpace=wrap;connectable=0;strokeColor=inherit;overflow=hidden;fillColor=none;top=0;left=0;bottom=0;right=0;pointerEvents=1;fontSize=16;" vertex="1" parent="TA5Ejy33XSyFlR8eNVH8-64">
          <mxGeometry width="122" height="47" as="geometry">
            <mxRectangle width="122" height="47" as="alternateBounds" />
          </mxGeometry>
        </mxCell>
        <mxCell id="TA5Ejy33XSyFlR8eNVH8-66" value="Animação" style="shape=partialRectangle;html=1;whiteSpace=wrap;connectable=0;strokeColor=inherit;overflow=hidden;fillColor=none;top=0;left=0;bottom=0;right=0;pointerEvents=1;fontSize=16;" vertex="1" parent="TA5Ejy33XSyFlR8eNVH8-64">
          <mxGeometry x="122" width="148" height="47" as="geometry">
            <mxRectangle width="148" height="47" as="alternateBounds" />
          </mxGeometry>
        </mxCell>
        <mxCell id="TA5Ejy33XSyFlR8eNVH8-68" value="Filme" style="shape=table;startSize=30;container=1;collapsible=0;childLayout=tableLayout;strokeColor=default;fontSize=16;" vertex="1" parent="1">
          <mxGeometry x="1241" y="250" width="329" height="150" as="geometry" />
        </mxCell>
        <mxCell id="TA5Ejy33XSyFlR8eNVH8-69" value="" style="shape=tableRow;horizontal=0;startSize=0;swimlaneHead=0;swimlaneBody=0;strokeColor=inherit;top=0;left=0;bottom=0;right=0;collapsible=0;dropTarget=0;fillColor=none;points=[[0,0.5],[1,0.5]];portConstraint=eastwest;fontSize=16;" vertex="1" parent="TA5Ejy33XSyFlR8eNVH8-68">
          <mxGeometry y="30" width="329" height="40" as="geometry" />
        </mxCell>
        <mxCell id="TA5Ejy33XSyFlR8eNVH8-70" value="IdFilme" style="shape=partialRectangle;html=1;whiteSpace=wrap;connectable=0;strokeColor=inherit;overflow=hidden;fillColor=none;top=0;left=0;bottom=0;right=0;pointerEvents=1;fontSize=16;" vertex="1" parent="TA5Ejy33XSyFlR8eNVH8-69">
          <mxGeometry width="110" height="40" as="geometry">
            <mxRectangle width="110" height="40" as="alternateBounds" />
          </mxGeometry>
        </mxCell>
        <mxCell id="TA5Ejy33XSyFlR8eNVH8-71" value="IdGênero" style="shape=partialRectangle;html=1;whiteSpace=wrap;connectable=0;strokeColor=inherit;overflow=hidden;fillColor=none;top=0;left=0;bottom=0;right=0;pointerEvents=1;fontSize=16;" vertex="1" parent="TA5Ejy33XSyFlR8eNVH8-69">
          <mxGeometry x="110" width="109" height="40" as="geometry">
            <mxRectangle width="109" height="40" as="alternateBounds" />
          </mxGeometry>
        </mxCell>
        <mxCell id="TA5Ejy33XSyFlR8eNVH8-72" value="Título" style="shape=partialRectangle;html=1;whiteSpace=wrap;connectable=0;strokeColor=inherit;overflow=hidden;fillColor=none;top=0;left=0;bottom=0;right=0;pointerEvents=1;fontSize=16;" vertex="1" parent="TA5Ejy33XSyFlR8eNVH8-69">
          <mxGeometry x="219" width="110" height="40" as="geometry">
            <mxRectangle width="110" height="40" as="alternateBounds" />
          </mxGeometry>
        </mxCell>
        <mxCell id="TA5Ejy33XSyFlR8eNVH8-73" value="" style="shape=tableRow;horizontal=0;startSize=0;swimlaneHead=0;swimlaneBody=0;strokeColor=inherit;top=0;left=0;bottom=0;right=0;collapsible=0;dropTarget=0;fillColor=none;points=[[0,0.5],[1,0.5]];portConstraint=eastwest;fontSize=16;" vertex="1" parent="TA5Ejy33XSyFlR8eNVH8-68">
          <mxGeometry y="70" width="329" height="40" as="geometry" />
        </mxCell>
        <mxCell id="TA5Ejy33XSyFlR8eNVH8-74" value="5" style="shape=partialRectangle;html=1;whiteSpace=wrap;connectable=0;strokeColor=inherit;overflow=hidden;fillColor=none;top=0;left=0;bottom=0;right=0;pointerEvents=1;fontSize=16;" vertex="1" parent="TA5Ejy33XSyFlR8eNVH8-73">
          <mxGeometry width="110" height="40" as="geometry">
            <mxRectangle width="110" height="40" as="alternateBounds" />
          </mxGeometry>
        </mxCell>
        <mxCell id="TA5Ejy33XSyFlR8eNVH8-75" value="2" style="shape=partialRectangle;html=1;whiteSpace=wrap;connectable=0;strokeColor=inherit;overflow=hidden;fillColor=none;top=0;left=0;bottom=0;right=0;pointerEvents=1;fontSize=16;" vertex="1" parent="TA5Ejy33XSyFlR8eNVH8-73">
          <mxGeometry x="110" width="109" height="40" as="geometry">
            <mxRectangle width="109" height="40" as="alternateBounds" />
          </mxGeometry>
        </mxCell>
        <mxCell id="TA5Ejy33XSyFlR8eNVH8-76" value="John Wick" style="shape=partialRectangle;html=1;whiteSpace=wrap;connectable=0;strokeColor=inherit;overflow=hidden;fillColor=none;top=0;left=0;bottom=0;right=0;pointerEvents=1;fontSize=16;" vertex="1" parent="TA5Ejy33XSyFlR8eNVH8-73">
          <mxGeometry x="219" width="110" height="40" as="geometry">
            <mxRectangle width="110" height="40" as="alternateBounds" />
          </mxGeometry>
        </mxCell>
        <mxCell id="TA5Ejy33XSyFlR8eNVH8-77" value="" style="shape=tableRow;horizontal=0;startSize=0;swimlaneHead=0;swimlaneBody=0;strokeColor=inherit;top=0;left=0;bottom=0;right=0;collapsible=0;dropTarget=0;fillColor=none;points=[[0,0.5],[1,0.5]];portConstraint=eastwest;fontSize=16;" vertex="1" parent="TA5Ejy33XSyFlR8eNVH8-68">
          <mxGeometry y="110" width="329" height="40" as="geometry" />
        </mxCell>
        <mxCell id="TA5Ejy33XSyFlR8eNVH8-78" value="6" style="shape=partialRectangle;html=1;whiteSpace=wrap;connectable=0;strokeColor=inherit;overflow=hidden;fillColor=none;top=0;left=0;bottom=0;right=0;pointerEvents=1;fontSize=16;" vertex="1" parent="TA5Ejy33XSyFlR8eNVH8-77">
          <mxGeometry width="110" height="40" as="geometry">
            <mxRectangle width="110" height="40" as="alternateBounds" />
          </mxGeometry>
        </mxCell>
        <mxCell id="TA5Ejy33XSyFlR8eNVH8-79" value="1" style="shape=partialRectangle;html=1;whiteSpace=wrap;connectable=0;strokeColor=inherit;overflow=hidden;fillColor=none;top=0;left=0;bottom=0;right=0;pointerEvents=1;fontSize=16;" vertex="1" parent="TA5Ejy33XSyFlR8eNVH8-77">
          <mxGeometry x="110" width="109" height="40" as="geometry">
            <mxRectangle width="109" height="40" as="alternateBounds" />
          </mxGeometry>
        </mxCell>
        <mxCell id="TA5Ejy33XSyFlR8eNVH8-80" value="Frozen" style="shape=partialRectangle;html=1;whiteSpace=wrap;connectable=0;strokeColor=inherit;overflow=hidden;fillColor=none;top=0;left=0;bottom=0;right=0;pointerEvents=1;fontSize=16;" vertex="1" parent="TA5Ejy33XSyFlR8eNVH8-77">
          <mxGeometry x="219" width="110" height="40" as="geometry">
            <mxRectangle width="110" height="40" as="alternateBounds" />
          </mxGeometry>
        </mxCell>
      </root>
    </mxGraphModel>
  </diagram>
</mxfile>
